<?xml version="1.0" encoding="UTF-8"?>
<svg id="_图层_1" data-name="图层_1" xmlns="http://www.w3.org/2000/svg" version="1.1" viewBox="0 0 800 800">
  <!-- Generator: Adobe Illustrator 29.1.0, SVG Export Plug-In . SVG Version: 2.1.0 Build 142)  -->
  <path d="M49.9968,400.441c-.231-193.3157,156.257-350.2027,349.5797-350.4407,193.3017-.238,350.1817,156.271,350.4267,349.5867.231,193.2947-156.278,350.1818-349.5797,350.4127-193.3157.238-350.1887-156.264-350.4267-349.5587" style="fill: #b0a072;"/>
  <circle cx="400.0035" cy="400" r="334.9144"/>
  <circle cx="400.0035" cy="400" r="241.5396" style="fill: #b0a072;"/>
  <circle cx="400.0035" cy="400" r="229.2474" style="fill: #fff;"/>
  <path d="M400.0035,170.7596c-126.6114,0-229.2474,102.636-229.2474,229.2474s102.636,229.2474,229.2474,229.2474V170.7596Z" style="fill: red;"/>
  <path d="M509.8846,320.8425s-3.8361-26.9715-21.9034-40.9998c-12.0472-9.3382-27.2235-18.8374-53.544-18.8024l-80.7046.546.154,121.8723,56.2671-.896c6.6151-1.477,19.7474-7.7982,19.7474-25.9425,0-8.4142-.259-8.4772-.259-8.4772l14.9523-.014,19.2994,104.757-17.8363.483c-3.1571-12.0402-10.8712-51.738-35.9107-52.032l-56.5191-.063.147,119.6603c.014,17.7173,20.9654,19.2714,20.9654,19.2714l14.7213-.014.021,17.3323-115.9292.14-.021-17.3253s0-.014,12.0402-.014c5.8031,0,20.8674-1.162,20.8464-18.9984l-.287-234.5395c-.028-25.1235-17.7803-25.1025-17.7803-25.1025l-16.0443.021-.014-16.3033,245.5227-3.0381,9.9122,78.4715-17.8363.021-.007-.014ZM113.096,418.1234c8.7572-.014,15.8343-7.1261,15.8273-15.8763-.014-8.7642-7.1121-15.8483-15.8693-15.8343-8.7642.014-15.8623,7.1121-15.8483,15.8763.014,8.7502,7.1191,15.8483,15.8903,15.8343M686.442,418.1234c8.7502-.014,15.8343-7.1261,15.8273-15.8763-.014-8.7642-7.1121-15.8483-15.8693-15.8343-8.7642.014-15.8623,7.1121-15.8483,15.8763.014,8.7502,7.1191,15.8483,15.8973,15.8343M143.1126,542.8447l-6.6711-12.1803-22.1344,12.1312-6.3211-11.5292,56.4561-30.9406,15.1763,27.6925c2.093,3.9971,3.2761,7.3081,3.5491,9.9332.273,2.618-.049,5.1521-.973,7.5812-.7541,1.9941-1.8197,3.8559-3.1571,5.5161-1.344,1.666-3.1291,3.1081-5.3481,4.3261-2.6811,1.47-5.6841,2.2401-9.0232,2.303-3.3321.07-6.3911-1.162-9.1702-3.6891.378,3.178-.098,5.8381-1.428,7.9802s-3.9761,4.2981-7.9382,6.4681l-3.7941,2.079c-2.576,1.414-4.2701,2.4711-5.0751,3.1851-1.288,1.106-1.967,2.408-2.044,3.9061l-1.414.777-7.1191-12.9852c1.057-1.043,1.925-1.848,2.6041-2.4221,1.414-1.176,2.9471-2.233,4.5921-3.1641l5.2011-2.954c3.5701-2.023,5.6141-3.9971,6.1181-5.9151.504-1.925-.189-4.6201-2.093-8.0922l.007-.007ZM157.3018,544.3848c2.359,1.764,5.1241,1.7711,8.2882.035,3.4231-1.876,5.0961-4.2701,5.0261-7.1892-.035-1.6381-.749-3.7381-2.149-6.2861l-7.5181-13.7133-15.1693,8.3092,7.3291,13.3702c1.456,2.653,2.8491,4.4801,4.1931,5.4741M170.9661,624.7533c-6.4401-6.5731-9.5692-13.3493-9.3872-20.3284-.175-8.9602,3.8711-17.4793,12.1242-25.5715,8.4282-8.2531,17.0313-12.1102,25.8165-11.5852,6.9791-.028,13.6923,3.2411,20.1254,9.8142s9.5692,13.3493,9.3872,20.3284c.322,8.7782-3.7311,17.2903-12.1592,25.5365-8.2602,8.0851-16.8563,11.9632-25.7885,11.6202-6.9791.028-13.6923-3.2411-20.1254-9.8142h.007ZM192.2185,621.7363c4.9911-.525,10.0732-3.3251,15.2533-8.3932,5.1591-5.0541,8.0502-10.0802,8.6802-15.0713.63-4.9981-.917-9.4012-4.6481-13.2093s-8.1062-5.4671-13.1322-4.9841c-5.0261.483-10.1362,3.262-15.3163,8.3302-5.1801,5.0751-8.0642,10.1152-8.6522,15.1343s.98,9.4292,4.7111,13.2372c3.7241,3.808,8.0921,5.4601,13.1043,4.9561M290.2204,631.4665l-5.9291,9.7372-16.4503-10.0172-27.5455,45.2489-11.5642-7.0421,27.5455-45.2489-16.5273-10.0592,5.9291-9.7372,44.5419,27.1185ZM353.1376,651.7949l-3.2131,10.9412-18.4804-5.4321-14.9313,50.828-12.9922-3.8151,14.9313-50.828-18.5643-5.4531,3.2131-10.9342,50.03,14.6933h.007ZM414.5708,691.4226l-31.2626-.763-.406,16.5483,35.6307.875-.287,11.5712-48.7699-1.197,1.575-64.3522,47.1949,1.155-.28,11.3962-34.0557-.833-.336,13.6643,31.2626.763-.273,11.1792.007-.007ZM473.0779,684.6815l-13.4753,3.353,6.0971,24.4935-12.7542,3.178-15.5543-62.4692,30.6396-7.6302c4.3961-1.008,7.9031-1.309,10.5072-.903,2.604.399,4.9631,1.358,7.0841,2.87,1.75,1.246,3.2551,2.7301,4.5291,4.4521,1.267,1.722,2.212,3.8151,2.8211,6.2721.735,2.961.714,6.0691-.07,9.3102s-2.751,5.8801-5.9011,7.9242c3.1711.441,5.6211,1.575,7.3571,3.4161,1.729,1.834,3.1431,4.9421,4.2351,9.3172l1.043,4.1931c.714,2.8561,1.309,4.7601,1.785,5.7191.742,1.526,1.827,2.5131,3.262,2.9681l.392,1.568-14.3643,3.5771c-.742-1.288-1.302-2.3311-1.68-3.136-.7837-1.6884-1.4162-3.443-1.89-5.2431l-1.533-5.7821c-1.05-3.9691-2.436-6.4471-4.1651-7.4271s-4.5151-.994-8.3582-.035l-.007.0141ZM478.181,671.3462c2.303-1.834,3.0171-4.5011,2.149-8.0082-.938-3.7871-2.835-6.0131-5.6701-6.6921-1.5961-.385-3.8081-.224-6.6291.483l-15.1693,3.7801,4.1791,16.7793,14.7913-3.6821c2.9401-.728,5.0541-1.617,6.3561-2.66h-.007ZM560.7056,675.7773l-24.0525,13.8042-32.0466-55.8331,24.0525-13.8042c3.4861-1.932,6.6011-3.1851,9.3312-3.7451,4.6551-.959,9.1772-.42,13.5733,1.624,3.5421,1.666,6.5871,3.9061,9.1492,6.7341s4.6831,5.7051,6.3701,8.6312c4.2631,7.4201,6.3771,14.5673,6.3561,21.4274-.056,9.2682-4.2981,16.3173-12.7332,21.1544v.007ZM545.5083,629.2124c-3.5351-2.002-7.9521-1.477-13.2512,1.568l-10.7592,6.1741,20.9164,36.4357,10.7592-6.1741c5.5021-3.1641,7.7841-8.0781,6.8391-14.7563-.525-3.6611-1.967-7.5462-4.3331-11.6622-3.262-5.6841-6.6571-9.5412-10.1712-11.5852M621.7958,610.9491l-17.0033,16.5343,6.0271,12.5932-10.0802,9.8002-28.4066-62.1682,10.8992-10.5982,61.2232,30.2616-10.4582,10.1642-12.2012-6.5941v.007ZM611.3656,605.615l-23.4155-12.5582,11.7042,23.9475,11.7112-11.3822v-.007ZM667.1496,575.5354l-6.2861,10.8432-55.6931-32.2776,9.8072-16.9263,49.666,15.2533-37.9687-35.4347,9.7022-16.7373,55.6931,32.2776-6.2861,10.8432-37.6677-21.8334c-1.085-.63-2.5971-1.519-4.5291-2.6741-1.9391-1.155-3.437-2.044-4.4941-2.653l40.6288,37.6327-6.5451,11.2982-52.809-16.6253c1.057.616,2.569,1.47,4.5361,2.576,1.5285.8572,3.0523,1.7229,4.5711,2.5971l37.6747,21.8334v.007ZM141.2715,231.1008l-15.3653,28.3855,13.0202,7.0491,13.4543-24.8505,9.8282,5.3201-13.4543,24.8505,23.7375,12.8522-6.3631,11.7532-56.5331-30.6046,21.7284-40.1318,9.9472,5.3831v-.007ZM208.0178,190.836l-21.3574,22.8414,12.0892,11.3052,24.3395-26.0265,8.4562,7.9031-33.3206,35.6307-47.0199-43.9749,32.2496-34.4827,8.3232,7.7841-23.2685,24.8785,9.9822,9.3382,21.3574-22.8344,8.1622,7.6371h.007ZM250.9286,116.1375l3.7381,45.4309,13.1392,20.3144-11.2982,7.3081-13.1392-20.3144-40.5238-21.6444,13.3073-8.6102,26.4535,16.2823-4.4871-30.4926,12.8033-8.2812.007.007ZM329.3091,124.9647l-29.5896,10.1222,5.3551,15.6593,33.7196-11.5362,3.7451,10.9482-46.1589,15.7853-20.8324-60.9082,44.6679-15.2813,3.6891,10.7872-32.2286,11.0252,4.4241,12.9362,29.5896-10.1222,3.6191,10.5772v.007ZM412.7577,143.8861l-13.4263.728-28.7285-44.2408,2.471,45.6619-12.5162.679-3.4791-64.2822,14.0843-.763,28.0285,43.4848-2.429-44.8779,12.5162-.679,3.479,64.2822v.007ZM459.0007,153.7423c-8.9672-2.058-15.2603-6.0761-18.8724-12.0472-4.9771-7.4481-6.1741-16.8073-3.5841-28.0705,2.6391-11.4942,7.8052-19.3904,15.4843-23.6885,5.8591-3.7941,13.2723-4.6551,22.2394-2.597,8.9672,2.065,15.2603,6.0761,18.8724,12.0472,5.0051,7.2171,6.1881,16.5693,3.5421,28.0635-2.5901,11.2632-7.7351,19.1664-15.4423,23.6955-5.8591,3.7941-13.2723,4.6551-22.2394,2.59v.007ZM475.262,139.735c3.9131-3.1291,6.6851-8.2322,8.3162-15.2953,1.617-7.0351,1.344-12.8242-.819-17.3743-2.1631-4.5431-5.8451-7.4131-11.0392-8.6102s-9.7792-.231-13.7483,2.8911c-3.9761,3.1221-6.7691,8.2112-8.3932,15.2813-1.624,7.0631-1.33,12.8662.882,17.4093,2.212,4.5431,5.9151,7.4131,11.1092,8.6032,5.1941,1.197,9.7582.231,13.7063-2.8981l-.014-.007ZM526.853,180.7348c-7.9802-4.5851-12.8243-10.2622-14.5463-17.0243-2.5901-8.5752-1.008-17.8713,4.7531-27.8955,5.8801-10.2202,13.1182-16.2683,21.7144-18.1443,6.7131-1.918,14.0563-.588,22.0364,3.9971s12.8243,10.2622,14.5463,17.0243c2.6811,8.3582,1.085,17.6543-4.7881,27.8745-5.7611,10.0242-12.9852,16.0793-21.6794,18.1653-6.7061,1.918-14.0563.588-22.0294-3.9971h-.007ZM546.4883,172.0756c4.6621-1.855,8.7922-5.9221,12.4042-12.2082,3.5981-6.2581,5.0261-11.8792,4.2771-16.8563-.749-4.9841-3.4301-8.7992-8.0502-11.4522s-9.2822-3.0731-13.9933-1.246-8.8692,5.8801-12.4883,12.1662c-3.6121,6.2861-5.0191,11.9212-4.2281,16.9123.798,4.9911,3.5001,8.8132,8.1201,11.4662s9.2752,3.0661,13.9583,1.218M603.0774,206.7333l-9.6322-10.0032-18.1863,17.5143-9.1212-9.4712,46.3619-44.6609,21.9104,22.7434c3.0661,3.3111,5.0751,6.1951,6.0271,8.6522s1.302,4.9841,1.043,7.5741c-.1981,2.1212-.737,4.1966-1.5961,6.1461-.861,1.96-2.2051,3.8221-4.0251,5.5791-2.2051,2.121-4.9001,3.6541-8.0992,4.5921s-6.4751.553-9.8142-1.155c1.197,2.9681,1.442,5.6561.714,8.0782-.728,2.415-2.709,5.1941-5.9641,8.3232l-3.1151,2.9961c-2.1211,2.037-3.4721,3.5071-4.0671,4.4031-.952,1.4-1.267,2.8421-.945,4.3051l-1.162,1.12-10.2692-10.6612c.742-1.288,1.372-2.289,1.883-3.0241,1.057-1.505,2.254-2.9191,3.5981-4.2561l4.2491-4.2141c2.912-2.8911,4.3681-5.3271,4.3541-7.3151s-1.393-4.4101-4.1371-7.2591l-.007-.007ZM617.1757,204.5002c2.737,1.078,5.4111.371,8.0082-2.135,2.8141-2.709,3.8011-5.4601,2.9681-8.2532-.462-1.575-1.708-3.4091-3.7241-5.5021l-10.8502-11.2632-12.4602,11.9982,10.5772,10.9762c2.1,2.177,3.9271,3.5701,5.4811,4.1791M626.6609,282.9718l-12.9573-24.5215,56.9251-30.0656,12.9502,24.5215c1.8131,3.5561,2.9471,6.7061,3.4161,9.4572.798,4.6831.091,9.1842-2.1,13.5103-1.785,3.4791-4.1371,6.4471-7.0491,8.9112s-5.8661,4.4801-8.8482,6.0551c-7.5671,3.9971-14.7843,5.8661-21.6374,5.6001-9.2542-.378-16.1563-4.8721-20.6924-13.4683h-.007ZM673.7368,269.4195c2.1211-3.4581,1.757-7.8891-1.099-13.3003l-5.7961-10.9692-37.1497,19.6214,5.7961,10.9692c2.9681,5.6141,7.7982,8.0641,14.5043,7.3571,3.6751-.392,7.6161-1.701,11.8092-3.9131,5.7891-3.0591,9.7652-6.3141,11.9282-9.7652h.007Z" style="fill: #b0a072;"/>
</svg>